<?xml version="1.0" standalone="no"?>
<!DOCTYPE svg PUBLIC "-//W3C//DTD SVG 20010904//EN"
 "http://www.w3.org/TR/2001/REC-SVG-20010904/DTD/svg10.dtd">
<svg version="1.0" xmlns="http://www.w3.org/2000/svg"
 width="620.000000pt" height="620.000000pt" viewBox="0 0 620.000000 620.000000"
 preserveAspectRatio="xMidYMid meet">
<metadata>
Created by potrace 1.14, written by Peter Selinger 2001-2017
</metadata>
<g transform="translate(0.000000,620.000000) scale(0.100000,-0.100000)"
fill="#000000" stroke="none">
<path d="M2806 6189 c-595 -57 -1168 -290 -1646 -669 -136 -107 -393 -366
-496 -500 -384 -496 -600 -1045 -655 -1660 -16 -185 -6 -524 21 -705 81 -547
303 -1057 650 -1495 107 -136 366 -393 500 -496 496 -384 1045 -600 1660 -655
185 -16 524 -6 705 21 547 81 1057 303 1495 650 136 107 393 366 496 500 384
496 600 1045 655 1660 16 185 6 524 -21 705 -81 547 -303 1057 -650 1495 -107
136 -366 393 -500 496 -491 380 -1040 598 -1645 654 -128 12 -441 11 -569 -1z
m624 -90 c1243 -137 2284 -1038 2590 -2242 71 -280 93 -463 93 -757 0 -300
-31 -533 -107 -811 -282 -1027 -1118 -1847 -2149 -2109 -280 -71 -463 -93
-757 -93 -455 0 -840 82 -1253 268 -326 147 -611 346 -878 614 -315 317 -525
638 -685 1049 -134 345 -197 691 -197 1082 0 241 14 390 58 605 239 1184 1173
2114 2365 2354 288 58 626 73 920 40z"/>
<path d="M2325 5379 c6 -18 5 -20 -14 -10 -15 9 -21 9 -21 1 0 -7 -8 -9 -19
-5 -11 3 -22 1 -26 -5 -5 -8 -20 -9 -44 -5 -92 18 -102 17 -100 -7 4 -49 0
-60 -21 -53 -13 4 -22 1 -26 -9 -3 -8 -11 -13 -17 -11 -7 2 -25 6 -40 9 -27 7
-28 6 -21 -29 5 -30 2 -39 -20 -60 -15 -14 -31 -25 -37 -25 -5 0 -9 -4 -9 -9
0 -5 -14 -14 -32 -20 -17 -6 -40 -18 -49 -27 -17 -15 -17 -17 6 -41 13 -15 21
-33 17 -41 -4 -12 0 -14 16 -10 28 8 27 4 0 -21 -20 -19 -20 -22 -6 -38 22
-24 26 -57 10 -75 -13 -16 -7 -48 9 -48 5 0 9 -10 9 -21 0 -12 12 -33 27 -47
15 -14 28 -32 29 -40 2 -8 6 -18 11 -21 11 -8 93 -119 93 -126 0 -3 -7 -5 -16
-5 -13 0 -14 -3 -4 -15 6 -8 9 -19 5 -26 -5 -8 -1 -9 13 -5 12 4 22 1 25 -8 8
-20 -2 -26 -27 -16 -13 5 -29 4 -37 -1 -11 -8 -8 -14 16 -34 17 -14 35 -23 42
-21 14 6 39 -22 28 -32 -4 -4 -10 -1 -12 6 -6 14 -29 16 -38 2 -3 -6 1 -7 9
-4 21 8 20 -6 0 -21 -11 -8 -14 -19 -10 -33 7 -22 36 -31 36 -12 0 6 5 10 10
10 27 0 5 -28 -29 -38 -34 -11 -76 -42 -56 -42 4 0 -8 -15 -27 -33 -19 -18
-38 -45 -42 -60 -5 -23 -3 -27 14 -27 12 0 18 5 15 10 -10 16 11 12 25 -5 7
-8 23 -15 36 -15 13 0 24 -4 24 -10 0 -5 -4 -10 -9 -10 -15 0 -34 -59 -24 -73
6 -6 9 -20 8 -30 -2 -9 0 -15 5 -12 11 7 82 -30 74 -38 -4 -4 -14 -7 -22 -7
-9 0 -23 -7 -32 -15 -9 -8 -32 -17 -51 -19 -78 -10 -257 -91 -338 -152 -24
-19 -52 -34 -62 -34 -9 0 -31 -13 -47 -30 -17 -16 -35 -30 -41 -30 -6 0 -11
-4 -11 -9 0 -9 -39 -56 -112 -134 -21 -22 -38 -45 -38 -51 0 -6 -28 -59 -62
-116 -77 -130 -89 -157 -127 -291 -40 -139 -59 -306 -48 -424 5 -49 10 -112
10 -140 1 -27 6 -57 12 -65 5 -8 10 -17 11 -20 0 -3 3 -12 6 -20 3 -8 12 -35
19 -60 7 -25 27 -73 45 -106 17 -34 42 -104 54 -155 14 -61 31 -106 48 -129
15 -19 26 -42 24 -50 -1 -8 8 -20 20 -25 27 -12 68 -80 68 -115 0 -15 12 -37
30 -53 16 -16 30 -36 30 -44 0 -8 11 -29 26 -45 14 -17 23 -36 21 -43 -3 -6 3
-16 13 -22 17 -11 62 -139 76 -218 4 -22 13 -49 20 -60 8 -11 14 -37 14 -58 0
-28 7 -44 25 -61 14 -13 25 -28 25 -33 0 -28 62 -130 89 -148 17 -11 31 -25
31 -32 0 -30 130 -42 202 -19 24 8 50 14 58 14 8 0 38 5 66 11 28 5 66 8 84 6
30 -4 68 8 80 25 3 4 19 13 35 21 26 12 30 20 31 54 2 77 -67 135 -206 175
-74 21 -81 25 -88 54 -5 17 -5 49 -1 71 4 23 10 59 13 80 6 46 28 128 36 135
3 3 11 27 18 55 7 27 20 54 28 58 8 4 14 12 14 18 0 5 13 27 28 48 27 37 41
72 62 157 l10 40 90 -3 c50 -1 107 -7 128 -12 110 -28 176 -33 412 -36 140 -1
262 1 270 6 14 7 62 13 170 23 19 2 27 1 17 -1 -9 -3 -15 -8 -12 -13 3 -4 14
-6 25 -3 16 4 20 0 20 -21 0 -14 6 -26 13 -27 6 -1 21 -2 32 -3 16 -1 20 -8
19 -36 0 -19 3 -37 7 -40 4 -3 10 -17 13 -30 20 -90 25 -123 20 -131 -2 -5 0
-28 7 -51 6 -24 13 -61 15 -83 6 -70 50 -219 75 -255 13 -20 33 -55 43 -78 10
-23 25 -42 33 -42 21 0 93 -39 93 -50 0 -6 7 -10 16 -10 8 0 36 -9 61 -21 69
-31 157 -42 230 -29 35 7 66 13 70 13 22 2 97 60 122 94 l29 40 -17 47 c-16
46 -18 48 -98 81 -103 41 -142 71 -142 107 -1 17 -6 27 -13 25 -9 -1 -13 11
-12 38 1 57 50 156 68 138 7 -7 36 29 31 38 -2 3 3 28 11 55 44 145 74 270 74
311 0 39 -2 44 -12 31 -7 -9 -22 -19 -33 -22 -16 -5 -20 -1 -21 19 -1 13 3 23
9 22 5 -1 11 14 11 33 1 22 6 34 14 33 6 -2 12 2 12 7 0 6 -4 10 -10 10 -5 0
-2 13 8 29 18 32 37 31 29 -1 -8 -31 17 -15 28 18 6 16 20 37 33 48 13 10 21
21 18 23 -7 7 20 33 33 33 6 0 11 4 11 10 0 5 34 35 75 66 41 31 75 61 75 66
0 5 4 7 8 4 5 -3 15 3 24 12 8 9 28 26 43 37 16 11 41 30 56 43 15 12 30 22
34 22 3 0 13 7 21 15 10 10 35 15 74 15 53 0 61 3 76 25 9 14 27 28 40 31 26
7 41 39 25 57 -7 9 -1 19 22 37 18 14 57 50 88 80 31 30 75 71 98 90 33 28 41
42 43 73 2 25 9 39 21 43 9 3 17 10 17 15 0 5 11 9 25 9 14 0 25 5 25 10 0 17
-46 11 -73 -10 -30 -24 -56 -25 -83 -5 -10 8 -29 15 -41 15 -12 0 -25 5 -29
12 -5 8 14 10 74 5 82 -6 124 4 161 41 8 7 25 12 38 9 17 -3 31 4 53 29 32 37
54 43 64 18 6 -15 8 -15 27 2 11 10 17 24 15 31 -3 8 2 13 13 13 16 0 29 20
35 55 1 6 9 26 18 46 8 20 19 47 23 60 4 13 11 29 15 34 12 16 5 59 -11 63 -8
2 -23 7 -34 12 -11 5 -49 10 -85 12 -41 2 -81 11 -105 24 -54 28 -109 38 -133
23 -14 -9 -23 -9 -38 0 -17 11 -17 11 6 6 22 -5 23 -5 7 6 -11 6 -24 12 -30
13 -12 2 -69 41 -161 109 -28 20 -54 37 -58 37 -4 0 -22 15 -40 33 -38 38 -99
77 -121 77 -9 0 -24 22 -37 55 -28 69 -77 114 -128 117 -65 3 -84 -1 -107 -22
-12 -11 -29 -20 -37 -20 -9 0 -25 -11 -36 -25 -11 -14 -28 -25 -38 -26 -18 0
-17 -1 1 -9 17 -7 17 -9 3 -9 -19 -1 -24 -16 -8 -26 32 -20 -43 -61 -83 -46
-17 7 -28 7 -32 1 -4 -6 -17 -4 -34 4 -19 10 -62 14 -151 14 -73 -1 -140 4
-161 11 -26 8 -44 9 -63 1 -38 -14 -71 -12 -86 5 -9 11 -17 12 -32 4 -16 -9
-19 -8 -13 2 6 9 3 11 -9 6 -9 -4 -15 -3 -12 2 3 5 -2 12 -11 16 -10 3 -19 1
-21 -4 -6 -18 -25 -13 -95 29 -38 22 -101 49 -140 60 -40 12 -76 23 -82 24 -5
2 -12 3 -15 3 -3 0 -15 5 -27 12 -21 10 -22 14 -10 34 24 39 21 136 -6 197
-14 30 -27 74 -31 98 -3 24 -8 47 -10 51 -3 4 8 6 23 3 24 -3 29 0 35 21 5 20
14 27 48 32 24 4 49 12 56 17 14 12 16 32 2 23 -18 -11 -10 5 15 33 14 15 25
22 25 16 0 -5 -5 -15 -11 -21 -20 -20 -14 -75 11 -95 26 -21 46 -23 54 -5 3 8
9 7 20 -7 8 -10 19 -15 25 -11 6 3 21 -1 33 -9 35 -25 40 -20 36 32 l-4 48 37
-20 c31 -17 40 -19 51 -8 10 10 10 17 -1 35 -13 20 -13 21 2 9 9 -8 19 -34 23
-58 6 -44 24 -62 24 -25 0 31 11 51 29 51 9 0 29 7 45 15 34 18 36 18 36 4 0
-7 -7 -17 -17 -24 -21 -16 -9 -35 23 -35 15 0 24 6 24 15 0 8 5 15 10 15 6 0
10 -4 10 -10 0 -5 7 -7 15 -4 8 4 15 11 15 16 0 6 -6 8 -14 5 -15 -6 -40 16
-30 26 4 3 -3 18 -15 33 -11 15 -21 35 -21 45 0 9 -18 32 -40 49 -44 35 -48
45 -22 54 9 3 24 9 32 13 13 5 13 4 2 -9 -7 -9 -9 -18 -5 -20 4 -3 2 -3 -5 -1
-8 1 -12 -3 -10 -9 3 -8 25 -14 52 -16 45 -3 47 -2 36 18 -6 11 -8 24 -5 29 8
14 -5 41 -20 41 -21 0 -27 31 -8 45 15 11 15 15 4 29 -16 20 -57 21 -64 2 -4
-11 -57 -30 -57 -21 0 2 20 15 45 29 55 33 63 59 35 114 -24 46 -31 50 -50 27
-18 -21 -28 -19 -32 8 -2 12 -13 26 -25 32 -25 11 -29 20 -13 30 17 10 11 25
-10 25 -11 0 -20 -5 -20 -10 0 -6 -15 -8 -39 -4 -28 5 -39 2 -44 -9 -3 -8 -22
-17 -41 -21 -37 -7 -42 -17 -36 -83 2 -28 -10 -29 -44 -2 -26 21 -46 18 -46
-6 0 -7 -4 -15 -10 -17 -18 -6 -15 -86 4 -107 10 -10 13 -22 8 -25 -5 -3 -17
3 -27 14 -10 11 -22 20 -27 20 -12 0 -38 -63 -38 -92 0 -13 -9 -29 -20 -36
-26 -16 -26 -44 0 -67 20 -18 20 -18 -7 -37 -20 -14 -38 -17 -65 -13 -40 5
-55 -12 -19 -22 10 -2 24 -16 31 -29 8 -13 17 -24 21 -24 4 0 5 -9 2 -20 -7
-27 -25 -25 -52 4 -12 13 -30 23 -39 21 -9 -1 -12 0 -5 2 17 6 9 54 -13 71
-16 13 -17 14 -1 9 9 -4 17 -2 17 3 0 5 -8 11 -19 15 -10 3 -27 15 -37 26 -17
19 -17 20 1 13 15 -6 17 -3 13 19 -4 23 3 34 47 73 77 68 116 153 50 110 -29
-19 -29 -19 -15 21 8 20 8 38 0 57 -8 21 -7 27 2 24 7 -3 14 -16 16 -31 5 -44
27 -52 51 -18 12 16 21 33 21 39 0 19 -30 34 -72 37 -35 2 -52 10 -88 44 -24
23 -56 48 -70 54 -20 10 -24 19 -22 45 4 41 -14 64 -47 60 -25 -3 -26 -1 -31
67 -5 70 -13 95 -30 95 -5 0 -12 -11 -16 -25 -3 -14 -10 -23 -15 -20 -15 10
-29 -33 -29 -92 0 -81 -6 -93 -55 -132 -47 -37 -53 -49 -65 -126 -8 -50 -40
-176 -46 -184 -2 -2 -13 4 -24 14 -23 21 -26 62 -8 111 10 29 9 36 -7 54 -10
11 -13 20 -7 20 6 0 12 -6 15 -12 3 -9 7 -7 12 5 5 11 1 24 -9 36 -18 20 -22
36 -6 26 10 -6 14 7 11 33 -1 8 3 20 9 27 7 8 9 19 5 25 -3 5 -1 10 4 10 6 0
11 11 11 25 0 15 7 39 15 55 17 33 7 41 -13 10 -16 -25 -32 -26 -32 -1 0 11
-5 23 -11 26 -6 4 -8 13 -5 21 3 8 -1 14 -9 14 -8 0 -15 8 -15 18 0 22 -24 90
-36 101 -11 11 -94 19 -94 10 0 -3 -12 -6 -27 -5 -23 1 -29 6 -31 29 -4 29
-22 38 -22 10 0 -9 -3 -14 -6 -10 -4 3 -13 0 -21 -8 -8 -8 -20 -15 -27 -15
-15 0 -56 37 -56 50 0 6 -5 10 -11 10 -6 0 -8 -9 -4 -21z m1405 -533 c0 -22
-21 -35 -56 -36 -13 0 36 59 49 60 4 0 7 -11 7 -24z m-1766 -52 c3 -8 2 -12
-4 -9 -6 3 -10 10 -10 16 0 14 7 11 14 -7z m183 -41 c-14 -4 -17 -11 -13 -29
7 -26 -11 -34 -20 -9 -8 19 13 45 35 44 13 -1 12 -2 -2 -6z m1269 -56 c1 -9
-3 -17 -10 -17 -19 0 -49 37 -41 50 9 15 47 -10 51 -33z m-285 -19 c-8 -10
-19 -18 -23 -18 -11 0 -10 28 3 51 10 19 11 20 23 3 11 -14 10 -20 -3 -36z
m529 32 c-12 -22 -18 -24 -39 -11 -19 12 -4 31 25 31 22 0 23 -3 14 -20z
m-1612 -66 c7 -14 8 -23 2 -19 -15 9 -32 45 -22 45 5 0 14 -12 20 -26z m1439
-10 c-3 -3 -12 -4 -19 -1 -8 3 -5 6 6 6 11 1 17 -2 13 -5z m131 -26 c-3 -7
-14 -14 -26 -16 -24 -4 -36 -32 -27 -61 7 -22 -9 -35 -32 -27 -12 5 -13 9 -3
21 6 7 11 22 10 32 -6 50 3 59 58 62 15 1 22 -4 20 -11z m-572 -40 c4 -7 3 -8
-4 -4 -7 4 -12 2 -12 -3 0 -6 -5 -11 -11 -11 -8 0 -8 5 1 15 15 18 17 18 26 3z
m634 -8 c0 -5 -4 -10 -9 -10 -6 0 -13 5 -16 10 -3 6 1 10 9 10 9 0 16 -4 16
-10z m-183 -44 c-13 -11 -27 -29 -30 -38 -8 -24 -27 -23 -27 1 0 10 16 29 35
42 19 13 35 29 36 34 0 6 3 4 6 -4 3 -7 -6 -23 -20 -35z m370 -93 c-3 -3 -11
-2 -17 2 -8 5 -7 11 2 22 12 15 13 14 16 -1 2 -10 1 -20 -1 -23z m-737 -23 c0
-5 -4 -10 -10 -10 -5 0 -10 5 -10 10 0 6 5 10 10 10 6 0 10 -4 10 -10z m-10
-40 c-6 -11 -12 -20 -13 -20 -2 0 -3 9 -3 20 0 11 6 20 13 20 11 0 11 -5 3
-20z m143 -130 c28 -58 21 -82 -13 -45 -14 15 -35 25 -52 25 -15 0 -28 2 -28
4 0 18 15 36 31 36 11 0 22 7 25 15 9 22 11 20 37 -35z m-16 -95 c0 -8 -4 -12
-9 -9 -4 3 -8 9 -8 15 0 5 4 9 8 9 5 0 9 -7 9 -15z m-57 -54 c12 -1 13 -3 1
-10 -7 -5 -21 -7 -30 -6 -9 2 -22 4 -28 4 -7 1 -13 5 -13 10 0 5 12 8 28 6 15
-2 34 -4 42 -4z m54 -22 c4 6 12 11 19 11 7 0 5 -7 -5 -16 -18 -18 -54 -12
-42 7 5 8 9 8 14 -1 5 -9 9 -9 14 -1z m1331 -78 c3 -5 2 -12 -3 -15 -5 -3 -9
1 -9 9 0 17 3 19 12 6z m64 -27 c31 -26 68 -90 58 -100 -10 -10 -27 7 -27 27
0 11 -4 17 -10 14 -5 -3 -10 1 -10 9 0 9 -5 16 -11 16 -6 0 -19 10 -30 23 -36
43 -17 51 30 11z m294 -292 c-18 -3 -22 -9 -21 -30 1 -15 8 -35 16 -44 8 -9
11 -22 7 -27 -3 -6 1 -11 9 -11 19 0 22 -35 4 -46 -6 -4 -9 -3 -5 2 3 5 -1 18
-9 29 -8 10 -14 13 -14 7 0 -7 -5 -12 -11 -12 -5 0 -7 5 -3 12 5 8 2 9 -11 5
-9 -4 -23 -3 -29 2 -6 5 -20 11 -31 13 -20 5 -20 5 -1 13 13 6 21 4 24 -3 2
-7 8 -10 13 -7 5 3 17 1 28 -5 14 -7 22 -7 27 1 9 15 -14 28 -39 21 -29 -7
-52 26 -33 47 8 9 14 20 13 26 -2 12 52 24 73 16 11 -4 9 -7 -7 -9z m72 -42
c3 -5 -1 -10 -9 -10 -8 0 -18 5 -21 10 -3 6 1 10 9 10 8 0 18 -4 21 -10z m45
-38 c7 2 18 -6 25 -17 12 -17 12 -23 -1 -39 -8 -11 -14 -14 -14 -8 0 7 -5 12
-11 12 -15 0 -35 22 -44 49 -6 21 -5 22 14 12 11 -6 25 -10 31 -9z m38 -117
c-2 -2 -21 -6 -43 -9 -28 -4 -34 -4 -20 3 11 5 29 19 40 31 l20 22 3 -22 c2
-12 2 -23 0 -25z m329 7 c21 -7 21 -7 3 -30 -22 -26 -46 -20 -53 14 -4 25 6
29 50 16z m-392 -51 c-8 -13 -35 -15 -35 -2 0 5 8 11 18 13 21 5 26 2 17 -11z
m-232 -33 c8 2 9 0 2 -7 -12 -12 -55 -4 -55 10 0 5 5 9 11 9 5 0 7 6 4 13 -4
6 1 3 10 -8 9 -11 22 -19 28 -17z m667 -71 c10 -4 8 -6 -7 -6 -20 -1 -23 -6
-23 -40 0 -50 -14 -61 -17 -14 -2 40 15 93 25 77 4 -6 14 -14 22 -17z m-565
-268 c-4 -5 -12 -9 -20 -9 -7 0 -15 -8 -17 -17 -2 -11 -6 -14 -10 -7 -9 14 30
57 43 49 5 -4 7 -11 4 -16z m185 -108 c0 -21 -29 -32 -50 -21 -12 7 -31 10
-41 7 -10 -3 -19 -1 -19 3 0 9 22 14 78 17 17 1 32 -2 32 -6z m-880 -930 c0
-12 -30 -36 -31 -25 0 5 -4 -1 -9 -13 -12 -31 -28 -29 -23 2 3 13 8 24 12 23
22 -2 41 4 36 12 -3 6 -1 10 4 10 6 0 11 -4 11 -9z m-20 -61 c0 -5 -4 -10 -10
-10 -5 0 -7 -7 -4 -15 4 -10 -3 -18 -21 -25 -31 -12 -38 -8 -40 19 -1 17 2 18
24 9 14 -5 22 -6 18 -2 -8 8 11 34 24 34 5 0 9 -4 9 -10z m-20 -83 c0 -31 -4
-34 -39 -29 -18 2 -31 11 -34 23 -6 23 21 27 29 5 3 -8 12 -12 20 -9 11 4 12
9 3 19 -9 11 -8 14 5 14 10 0 16 -8 16 -23z m-22 -62 c-3 -3 -9 2 -12 12 -6
14 -5 15 5 6 7 -7 10 -15 7 -18z m-38 6 c0 -5 -9 -11 -20 -14 -11 -3 -20 -1
-20 3 0 5 8 11 18 13 9 3 18 5 20 6 1 0 2 -3 2 -8z m22 -49 c-7 -2 -12 -7 -12
-12 0 -5 -5 -21 -11 -37 -8 -21 -12 -24 -19 -13 -5 9 -5 17 1 20 5 4 12 17 14
30 5 27 28 45 34 28 2 -7 -1 -14 -7 -16z m-80 -44 c-8 -8 -9 -4 -5 13 4 13 8
18 11 10 2 -7 -1 -18 -6 -23z m-1936 -63 c-10 -8 -24 -11 -29 -8 -6 4 -2 10 9
14 31 12 40 9 20 -6z m2084 -409 c0 -2 -7 -7 -16 -10 -8 -3 -12 -2 -9 4 6 10
25 14 25 6z m-1973 -102 c-3 -3 -12 -4 -19 -1 -8 3 -5 6 6 6 11 1 17 -2 13 -5z
m129 -35 c3 -6 1 -16 -5 -22 -8 -8 -11 -7 -11 5 0 9 -6 19 -12 21 -8 3 -7 6 4
6 9 1 20 -4 24 -10z"/>
<path d="M3491 4964 c0 -11 3 -14 6 -6 3 7 2 16 -1 19 -3 4 -6 -2 -5 -13z"/>
<path d="M1945 4151 c-3 -5 -1 -12 5 -16 5 -3 10 1 10 9 0 18 -6 21 -15 7z"/>
<path d="M2006 4001 c-7 -11 3 -41 14 -41 4 0 5 11 2 25 -5 27 -8 30 -16 16z"/>
<path d="M4320 3839 c0 -5 -4 -8 -9 -4 -5 3 -12 1 -16 -5 -10 -16 21 -12 35 5
9 10 9 15 1 15 -6 0 -11 -5 -11 -11z"/>
<path d="M5377 3116 c-3 -8 -22 -19 -41 -26 -45 -14 -47 -32 -3 -23 31 6 77
38 77 55 0 14 -28 9 -33 -6z"/>
<path d="M4190 2089 c0 -5 5 -7 10 -4 6 3 10 8 10 11 0 2 -4 4 -10 4 -5 0 -10
-5 -10 -11z"/>
<path d="M3300 1930 l-25 -8 28 -1 c15 -1 27 4 27 9 0 6 -1 10 -2 9 -2 -1 -14
-5 -28 -9z"/>
</g>
</svg>
